# xmcd
#
# Track frame offsets: 
#        150
#        14316
#        30115
#        55848
#        71479
#        85933
#        99830
#        119900
#        133439
#        146607
#        160618
#        183567
#        205172
#        237636
#        264135
#
# Disc length: 3788 seconds
#
# Revision: 0
# Processed by: cddbd v1.5.2PL0 Copyright (c) Steve Scherf et al.
# Submitted via: ExactAudioCopy v0.95b4
#
DISCID=cd0eca0f
DTITLE=Claudia Bettinaglio - Saving all my Love - A tribute to Tom Wai
DTITLE=ts
DYEAR=2008
DGENRE=Blues
TTITLE0=Fumblin With the Blues
TTITLE1=Clap Hands
TTITLE2=Invitation To The Blues
TTITLE3=Heartattack and Vine
TTITLE4=Jockey full of Bourbon
TTITLE5=Ice Cream Man
TTITLE6=Wrong Side of the Road
TTITLE7=Saving all my Love for You
TTITLE8=Romeo is Bleeding
TTITLE9=Swordfishtrombone
TTITLE10=Dirt in the Ground
TTITLE11=Cold Cold Ground
TTITLE12=$29
TTITLE13=Cold Water
TTITLE14=Jersey Girl [Bonus]
EXTD=
EXTT0=
EXTT1=
EXTT2=
EXTT3=
EXTT4=
EXTT5=
EXTT6=
EXTT7=
EXTT8=
EXTT9=
EXTT10=
EXTT11=
EXTT12=
EXTT13=
EXTT14=
PLAYORDER=
